<svg xmlns="http://www.w3.org/2000/svg" viewBox="0 0 129.25 122.62">
  <defs>
    <style>
      .a {
        fill: #fff;
      }

      .b {
        fill: #c1d82f;
      }

      .c {
        fill: #174a7c;
      }
    </style>
  </defs>
  <g>
    <path class="a" d="M83.14,48.45,68,12.06,52.8,48.45l-40,3.66,29.42,25-7.8,37.12c16-22.32,33.63-43.07,49.29-65.75Z" transform="translate(-3.35 -2.04)"/>
    <path class="b" d="M93.66,77.13l29.43-25L83.74,48.5h0l-.6,0L74.25,27.12c-6.63,18.34-16.32,37-23.5,56.74l4.14,3.28C48,96.08,41.07,105,34.45,114.25l-.56,2.68L67.7,97.3l.38.3.29-.23L102,116.93Z" transform="translate(-3.35 -2.04)"/>
    <polygon class="c" points="48.05 69.24 51.64 72.58 77.62 72.58 81.17 69.24 81.67 68.73 47.54 68.73 48.05 69.24"/>
    <polygon class="c" points="35.49 56.66 39.34 60.52 89.88 60.52 93.73 56.66 35.49 56.66"/>
    <path class="c" d="M68.12,54.54a6,6,0,1,0-6-6A6,6,0,0,0,68.12,54.54Zm0-8.5a2.5,2.5,0,0,1,2.46,2.49A2.46,2.46,0,1,1,68.12,46Z" transform="translate(-3.35 -2.04)"/>
    <path class="c" d="M132.61,49.09,85.79,44.8,67.93,2,50.12,44.8,3.35,49.11,38,78.58l-9.7,46.05L68,101.6l39.66,23.06L97.93,78.59ZM39.45,109.23,44.74,84,60.84,96.8ZM22.35,55.12l33.12-3.06L68,22.1l12.49,30,33.12,3L68.06,92.65ZM75.17,96.86l16-12.79,5.28,25.16Z" transform="translate(-3.35 -2.04)"/>
  </g>
</svg>
