<?xml version="1.0" encoding="UTF-8"?>
<svg id="Layer_1" xmlns="http://www.w3.org/2000/svg" version="1.1" viewBox="0 0 144 144">
  <!-- Generator: Adobe Illustrator 30.1.0, SVG Export Plug-In . SVG Version: 2.1.1 Build 136)  -->
  <defs>
    <style>
      .st0 {
        fill: #003976;
      }

      .st1 {
        fill: #fec057;
      }
    </style>
  </defs>
  <path class="st0" d="M98.4,85.06c2.57-1.61,5.59-2.49,8.84-2.49,4.47,0,8.54,1.75,11.54,4.61l2.41-15.18c2.13-13.44-1.46-23.12-16.27-23.12-7.97,0-16.44,3.87-21.59,11.16-2.99-7.75-9.73-11.16-18.16-11.16-7.52,0-13.98,2.73-19.91,9.22h-.23l1.16-7.29h-20.73l-9.26,58.43h20.73l4.42-27.91c1.03-6.49,2.6-16.4,11.82-16.4s7.65,9.91,6.62,16.4l-4.42,27.91h20.73l4.42-27.91c1.1-6.94,2.86-15.94,12.43-15.94,8.77,0,6.97,9.91,6.02,15.94l-.59,3.73Z"/>
  <circle class="st1" cx="107.25" cy="99.31" r="12.79" transform="translate(-8.37 188.73) rotate(-80.52)"/>
</svg>