<?xml version="1.0" standalone="no"?>
<!DOCTYPE svg PUBLIC "-//W3C//DTD SVG 20010904//EN"
 "http://www.w3.org/TR/2001/REC-SVG-20010904/DTD/svg10.dtd">
<svg version="1.0" xmlns="http://www.w3.org/2000/svg"
 width="170.000000pt" height="170.000000pt" viewBox="0 0 170.000000 170.000000"
 preserveAspectRatio="xMidYMid meet">
<metadata>
Created by potrace 1.11, written by Peter Selinger 2001-2013
</metadata>
<g transform="translate(0.000000,170.000000) scale(0.100000,-0.100000)"
fill="#000000" stroke="none">
<path d="M672 1171 c-29 -10 -71 -33 -93 -51 l-41 -33 6 39 7 40 -125 0 c-81
0 -126 -4 -127 -11 0 -5 -2 -17 -4 -25 -1 -8 -10 -62 -19 -120 -9 -58 -19
-116 -21 -130 -2 -14 -7 -45 -10 -70 -4 -25 -13 -81 -20 -125 -8 -44 -17 -102
-20 -130 -4 -27 -9 -58 -11 -67 -5 -16 5 -18 119 -18 l124 0 11 58 c6 31 14
75 17 97 32 231 62 332 107 356 33 18 98 13 120 -9 22 -22 30 -100 16 -171 -5
-25 -11 -62 -14 -81 -2 -19 -7 -46 -9 -60 -2 -14 -7 -45 -10 -70 -4 -25 -10
-62 -15 -82 l-8 -38 129 0 129 0 1 28 c0 15 2 36 5 47 2 11 6 40 10 65 6 43 8
56 18 110 3 14 8 43 11 65 10 76 17 100 41 141 36 64 108 83 159 42 28 -21 28
-22 22 -114 l-5 -92 54 15 c62 16 114 7 157 -27 l26 -21 6 38 c4 21 8 49 11
63 31 184 22 265 -37 314 -89 75 -266 51 -370 -50 l-36 -36 -7 25 c-7 29 -64
75 -115 93 -51 18 -127 16 -189 -5z"/>
<path d="M1247 740 c-81 -15 -131 -81 -124 -163 5 -55 29 -93 75 -120 137 -80
289 88 199 220 -12 18 -26 35 -32 37 -67 28 -84 32 -118 26z"/>
</g>
</svg>
